Coordinates
version=1
nRows=14
nColumns=46
inDegrees=yes

Units are S.I. units (second, meters, Newtons, ...)
Angles are in degrees.

endheader
time	pelvis_tilt	pelvis_list	pelvis_rotation	pelvis_tx	pelvis_ty	pelvis_tz	bb_angle	bb_tx	bb_ty	bb_tz	hip_flexion_r	hip_adduction_r	hip_rotation_r	knee_angle_r	knee_angle_r_beta	ankle_angle_r	subtalar_angle_r	mtp_angle_r	crank_angle_r	hip_flexion_l	hip_adduction_l	hip_rotation_l	knee_angle_l	knee_angle_l_beta	ankle_angle_l	subtalar_angle_l	mtp_angle_l	crank_angle_l	lumbar_extension	lumbar_bending	lumbar_rotation	arm_flex_r	arm_add_r	arm_rot_r	elbow_flex_r	pro_sup_r	wrist_flex_r	wrist_dev_r	arm_flex_l	arm_add_l	arm_rot_l	elbow_flex_l	pro_sup_l	wrist_flex_l	wrist_dev_l
      0.00000000	    -23.66511377	     -8.27853844	     -5.91844127	      0.16097149	      1.12006170	     -0.23822257	      0.00000000	      0.50000000	      0.00000000	      0.25000000	     84.45265762	      2.48967917	     -2.10996165	    105.21014353	      1.83626341	     28.38082648	     -1.72519428	      0.00000000	      0.00000000	     38.48890454	    -14.05891245	     -2.42741582	     11.71250640	      0.20442180	    -13.80640128	      4.06024969	      0.00000000	      0.00000000	    -47.03941400	      3.57512951	      8.65758607	     87.47428403	     -9.40115695	     43.90958554	     38.78486999	     32.24208720	      0.00000000	      0.00000000	     87.67832322	    -15.24305765	     49.53142024	     37.16314593	     32.79537376	      0.00000000	      0.00000000
      0.00500000	    -23.68494155	     -8.29494364	     -5.92422693	      0.16090461	      1.12011467	     -0.23818500	      0.00000000	      0.50000000	      0.00000000	      0.25000000	     84.55504818	      2.53304690	     -2.13216564	    105.19893100	      1.83606772	     28.31479001	     -1.89104273	      0.00000000	      0.00000000	     38.43180156	    -14.08130750	     -2.48828690	     11.65777094	      0.20346649	    -13.85757711	      4.07797558	      0.00000000	      0.00000000	    -47.04166412	      3.57191872	      8.66631427	     87.50163663	     -9.41874579	     43.65571868	     38.31844509	     34.84041707	      0.00000000	      0.00000000	     87.70512519	    -15.25146254	     49.26467676	     36.75433300	     35.38057678	      0.00000000	      0.00000000
      0.01000000	    -23.57076623	     -8.23268225	     -5.94792885	      0.16092321	      1.12043137	     -0.23819943	      0.00000000	      0.50000000	      0.00000000	      0.25000000	     84.50695824	      2.54695179	     -2.06612571	    105.15177129	      1.83524462	     28.33919022	     -1.92177815	      0.00000000	      0.00000000	     38.15859150	    -14.03364866	     -2.62751183	     11.49664768	      0.20065436	    -13.94502498	      4.13636252	      0.00000000	      0.00000000	    -47.23483926	      3.45800349	      8.67470709	     87.34608373	     -9.25820379	     42.40285057	     38.51031421	     35.45917833	      0.00000000	      0.00000000	     87.50008979	    -15.06697055	     47.87709661	     37.16249958	     36.00299101	      0.00000000	      0.00000000
      0.01500000	    -23.69218479	     -8.18030716	     -6.02332483	      0.16089144	      1.12031504	     -0.23809997	      0.00000000	      0.50000000	      0.00000000	      0.25000000	     84.73035399	      2.61766455	     -1.96257495	    105.22032983	      1.83644120	     28.33349408	     -1.78316940	      0.00000000	      0.00000000	     38.82951205	    -14.37736312	     -3.90722268	     12.71407390	      0.22190245	    -12.91793639	      5.83778542	      0.00000000	      0.00000000	    -47.07026897	      3.35239879	      8.67829164	     87.42527681	     -9.22082379	     42.72140050	     37.98334403	     35.91107787	      0.00000000	      0.00000000	     87.58788803	    -15.34375316	     48.80465322	     37.32690283	     36.61361295	      0.00000000	      0.00000000
      0.02000000	    -23.91943617	     -8.40072526	     -6.03295885	      0.16037677	      1.12028640	     -0.23794966	      0.00000000	      0.50000000	      0.00000000	      0.25000000	     85.07545203	      2.80254512	     -2.27593843	    105.30570639	      1.83793130	     28.95571687	     -0.20587902	      0.00000000	      0.00000000	     39.02660210	    -14.69050680	     -3.70758246	     12.71304287	      0.22188446	    -12.84387116	      6.28909095	      0.00000000	      0.00000000	    -46.89130896	      3.51500934	      8.86867969	     87.36317639	     -9.28446048	     42.65185028	     38.01450717	     35.97487556	      0.00000000	      0.00000000	     87.60277275	    -15.62615097	     49.06323698	     37.66096023	     36.75799299	      0.00000000	      0.00000000
      0.02500000	    -23.80994635	     -8.31779967	     -5.91381324	      0.16050960	      1.12005943	     -0.23821327	      0.00000000	      0.50000000	      0.00000000	      0.25000000	     85.05344045	      2.56238101	     -2.12959264	    105.21973851	      1.83643088	     28.29555746	     -1.48048458	      0.00000000	      0.00000000	     38.83387139	    -14.34118024	     -3.61997063	     12.56050807	      0.21922222	    -13.15735412	      5.63495542	      0.00000000	      0.00000000	    -47.01392569	      3.54274060	      8.65834268	     87.49586359	     -9.39138970	     42.83851132	     38.12645398	     36.08578992	      0.00000000	      0.00000000	     87.64650822	    -15.43850414	     49.16962597	     37.54298290	     36.81401556	      0.00000000	      0.00000000
      0.03000000	    -23.81706210	     -8.38894455	     -5.90890317	      0.16058646	      1.12024304	     -0.23830905	      0.00000000	      0.50000000	      0.00000000	      0.25000000	     85.08109237	      2.53175826	     -2.21768005	    105.12024919	      1.83469446	     28.37215794	     -1.26697908	      0.00000000	      0.00000000	     38.63604487	    -14.34672357	     -3.43205896	     12.21090923	      0.21312057	    -13.59695615	      5.58724434	      0.00000000	      0.00000000	    -47.08956056	      3.58232423	      8.75150885	     87.29217896	     -9.58401419	     42.27672150	     38.70307583	     36.59340320	      0.00000000	      0.00000000	     87.45515240	    -15.36533510	     48.28518171	     37.95593821	     37.22593107	      0.00000000	      0.00000000
      0.03500000	    -23.80103725	     -8.35955773	     -5.77928259	      0.16016543	      1.12013915	     -0.23845859	      0.00000000	      0.50000000	      0.00000000	      0.25000000	     85.19518803	      2.41693486	     -2.16538828	    105.14093257	      1.83505545	     28.29053123	     -1.26404348	      0.00000000	      0.00000000	     38.69959294	    -14.27811779	     -3.43186425	     12.35504835	      0.21563627	    -13.55672530	      5.70394859	      0.00000000	      0.00000000	    -46.95969424	      3.49908160	      8.92534124	     87.53176651	    -10.48173700	     43.88456359	     38.11930656	     38.53019573	      0.00000000	      0.00000000	     87.93748335	    -14.46796354	     49.07678120	     36.13091201	     38.74590769	      0.00000000	      0.00000000
      0.04000000	    -23.81952229	     -8.34874018	     -5.72254171	      0.16004491	      1.12017119	     -0.23864942	      0.00000000	      0.50000000	      0.00000000	      0.25000000	     85.29014285	      2.34137495	     -2.15604206	    105.11961306	      1.83468336	     28.30127531	     -1.22889441	      0.00000000	      0.00000000	     38.65811088	    -14.22846748	     -3.31002015	     12.31503129	      0.21493784	    -13.57224619	      5.70045185	      0.00000000	      0.00000000	    -46.95327383	      3.53276411	      8.89845780	     87.56387945	    -10.48816177	     43.65964942	     37.76521542	     40.24755615	      0.00000000	      0.00000000	     87.93504578	    -14.31613465	     48.56434513	     35.75518396	     40.39181741	      0.00000000	      0.00000000
      0.04500000	    -23.85573122	     -8.26871996	     -5.72968886	      0.15997321	      1.12019323	     -0.23864176	      0.00000000	      0.50000000	      0.00000000	      0.25000000	     85.42267382	      2.34065786	     -2.06287897	    105.10433965	      1.83441678	     28.28414095	     -1.23250656	      0.00000000	      0.00000000	     38.59153375	    -14.15389067	     -3.37094337	     12.21677868	      0.21322301	    -13.67523353	      5.68123190	      0.00000000	      0.00000000	    -46.90799633	      3.47807682	      8.75601919	     87.50976498	    -10.18661863	     43.10573806	     37.62119290	     40.51369833	      0.00000000	      0.00000000	     87.88433010	    -14.27369656	     48.03339606	     35.65716534	     40.63781416	      0.00000000	      0.00000000
      0.05000000	    -23.83591023	     -8.32452677	     -5.68359229	      0.15974907	      1.12015739	     -0.23864825	      0.00000000	      0.50000000	      0.00000000	      0.25000000	     85.49676426	      2.23085592	     -2.17845769	    105.09410838	      1.83423822	     28.15949393	     -1.87794698	      0.00000000	      0.00000000	     38.13730912	    -13.96487682	     -2.72962364	     11.40762067	      0.19910054	    -14.17765174	      4.44722646	      0.00000000	      0.00000000	    -46.99783645	      3.57590789	      8.79055232	     87.53923527	    -10.21549208	     42.70827009	     38.01681993	     40.76050328	      0.00000000	      0.00000000	     87.79227544	    -14.37469439	     47.63974185	     36.06354657	     40.86581191	      0.00000000	      0.00000000
      0.05500000	    -23.81806760	     -8.26350292	     -5.62993883	      0.15970497	      1.12021381	     -0.23874249	      0.00000000	      0.50000000	      0.00000000	      0.25000000	     85.55483246	      2.16705921	     -2.09584149	    105.09454236	      1.83424579	     28.20451905	     -1.70669213	      0.00000000	      0.00000000	     38.02702617	    -13.85761717	     -2.73609667	     11.29238741	      0.19708934	    -14.30393823	      4.42620799	      0.00000000	      0.00000000	    -46.98897018	      3.56838138	      8.68909150	     87.53251975	    -10.00684522	     42.40829164	     37.64379184	     40.96962189	      0.00000000	      0.00000000	     87.72912555	    -14.21312358	     47.10315350	     35.88847752	     41.06650406	      0.00000000	      0.00000000
      0.06000000	    -23.93507980	     -8.37835343	     -5.65059127	      0.15940671	      1.12003762	     -0.23864786	      0.00000000	      0.50000000	      0.00000000	      0.25000000	     85.74627928	      2.25011888	     -2.22183264	    105.03234563	      1.83316025	     28.07638953	     -2.04640908	      0.00000000	      0.00000000	     38.22762987	    -13.99601709	     -2.75427492	     11.48993396	      0.20053718	    -14.22354942	      4.41728285	      0.00000000	      0.00000000	    -46.85756048	      3.70872865	      8.70290543	     87.68957021	     -9.62443554	     42.49317251	     37.05442428	     40.91422055	      0.00000000	      0.00000000	     87.73374659	    -13.94149757	     46.53244371	     35.17046691	     40.92952303	      0.00000000	      0.00000000
      0.06500000	    -23.97723272	     -8.37675837	     -5.58128517	      0.15927693	      1.11999540	     -0.23877412	      0.00000000	      0.50000000	      0.00000000	      0.25000000	     85.84974897	      2.17525341	     -2.21953804	    105.01206020	      1.83280620	     28.10032396	     -1.93383627	      0.00000000	      0.00000000	     38.21960088	    -13.95325802	     -2.69743607	     11.42219252	      0.19935487	    -14.21792884	      4.53036125	      0.00000000	      0.00000000	    -46.85660473	      3.73594579	      8.73561841	     87.71199033	    -10.37289473	     43.42585464	     37.76118726	     41.76832189	      0.00000000	      0.00000000	     87.93247438	    -14.51643588	     48.13739077	     35.76349033	     41.77569521	      0.00000000	      0.00000000
